<svg xmlns="http://www.w3.org/2000/svg" viewBox="0 0 360 10"><path fill="#DAD9D9" d="M359 0v7.5l-6.5-7-7.5 8-7.5-8-7.5 8-7.5-8-7.5 8-7.5-8-7.5 8-7.5-8-7.5 8-7.5-8-7.5 8-7.5-8-7.5 8-7.5-8-7.5 8-7.5-8-7.5 8-7.5-8-7.5 8-7.5-8-7.5 8-7.5-8-7.5 8-7.5-8-7.5 8-7.5-8-7.5 8-7.5-8-7.5 8-7.5-8-7.5 8-7.5-8-7.5 8-7.5-8-7.5 8-7.5-8-7.5 8-7.5-8-7.5 8-7.5-8-7.5 8-7.5-8-7.5 8-7.5-8-7.5 8-7.5-8-6.5 7V0H0v10l7.5-8 7.5 8 7.5-8 7.5 8 7.5-8 7.5 8 7.5-8 7.5 8 7.5-8 7.5 8 7.5-8 7.5 8 7.5-8 7.5 8 7.5-8 7.5 8 7.5-8 7.5 8 7.5-8 7.5 8 7.5-8 7.5 8 7.5-8 7.5 8 7.5-8 7.5 8 7.5-8 7.5 8 7.5-8 7.5 8 7.5-8 7.5 8 7.5-8 7.5 8 7.5-8 7.5 8 7.5-8 7.5 8 7.5-8 7.5 8 7.5-8 7.5 8 7.5-8 7.5 8 7.5-8 7.5 8 7.5-8 7.5 8V0z"/></svg>
