<svg width="85" height="67" xmlns="http://www.w3.org/2000/svg"><path d="M73.6252 55h-62.263c-.9844 0-1.8324-.6817-2.0368-1.6357L.045 10.097a2.061 2.061 0 0 1 .867-2.1394c.699-.4739 1.6152-.4739 2.3221-.0126L23.448 21.32 40.9086.7002c.7925-.9336 2.3903-.9336 3.1828 0L61.552 21.32 81.766 7.945a2.0857 2.0857 0 0 1 2.322.0126 2.061 2.061 0 0 1 .867 2.1394l-9.293 43.2673C75.4575 54.3183 74.6095 55 73.6252 55zm-59.9283-5h57.6L79 15.443 61.8747 26.3622c-.8604.5504-2.0169.3931-2.6881-.365L42.5031 7 25.8134 25.9913c-.665.7596-1.8215.9153-2.688.365L6 15.4385 13.6969 50zM74 64.5c0-1.3842-.9282-2.5-2.0797-2.5H13.0797C11.9345 62 11 63.1158 11 64.5s.9345 2.5 2.0797 2.5h58.8406C73.0655 67 74 65.8842 74 64.5z" fill="#23282D" fill-rule="evenodd"/></svg>
