<svg height="32" width="32" xmlns="http://www.w3.org/2000/svg"><g fill="#fff"><path d="M25.444 4.291s-1.325 1.293-2.243 2.201C18.514 3.068 11.909 3.456 7.676 7.689c-2.47 2.47-3.623 5.747-3.484 8.983h4c-.141-2.212.618-4.467 2.308-6.158 2.663-2.663 6.735-3.043 9.812-1.162-1.042 1.032-2.245 2.238-2.245 2.238-.841 1.009.104 1.592.584 1.577l5.624-.001c.297 0 .539.001.539.001H26.449c.298 0 .54-.243.54-.541V4.895c.034-.707-.742-1.393-1.545-.604zM6.555 27.709s1.326-1.293 2.243-2.201c4.688 3.424 11.292 3.036 15.526-1.197 2.47-2.471 3.622-5.747 3.484-8.983h-4.001c.142 2.211-.617 4.467-2.308 6.159-2.663 2.662-6.735 3.043-9.812 1.161 1.042-1.032 2.245-2.238 2.245-2.238.841-1.01-.104-1.592-.584-1.577l-5.624.002c-.297 0-.54-.002-.54-.002H5.551c-.298 0-.54.242-.541.541v7.732c-.033.706.743 1.392 1.545.603z"/></g></svg>
