<svg width="20" height="20" xmlns="http://www.w3.org/2000/svg"><path d="M17.071 2.9288C14.2103.0686 9.9092-.7866 6.1727.7611 2.4365 2.3091 0 5.955 0 9.9998c0 4.0448 2.4365 7.6917 6.1728 9.2386 3.7365 1.5478 8.0376.6926 10.8981-2.1666A9.9978 9.9978 0 0 0 20 9.9998a9.9971 9.9971 0 0 0-2.929-7.071zM13.875 15.084c-.1729.172-.4531.172-.627 0l-2.873-2.8728c-.1729-.172-.4531-.172-.627 0l-3.0637 3.0646c-.1728.172-.4531.172-.627 0L4.724 13.9424c-.172-.1728-.172-.453 0-.6269l3.0645-3.0648c.172-.1728.172-.453 0-.627l-2.8728-2.873c-.172-.1728-.172-.453 0-.627L6.1605 4.879c.1728-.172.4531-.172.627 0l2.873 2.8728c.1728.172.4531.172.627 0l3.0293-3.0291c.1728-.172.453-.172.627 0L15.277 6.056c.172.1728.172.4531 0 .627l-3.0302 3.0282c-.172.1728-.172.4531 0 .6272l2.8646 2.875c.1717.1728.1717.453 0 .6269l-1.2366 1.2437z" fill="#FFF" fill-rule="evenodd"/></svg>
