<svg width="19" height="19" xmlns="http://www.w3.org/2000/svg"><path d="M2.775 2.825c-3.7 3.7-3.7 9.7 0 13.4 3.7 3.7 9.7 3.7 13.4 0 3.7-3.7 3.7-9.7 0-13.4-3.7-3.7-9.7-3.7-13.4 0zm7.0803 1.2c.8 0 1.4394.6605 1.4394 1.4605 0 .8-.6602 1.4603-1.4394 1.4603-.8 0-1.4606-.6603-1.4606-1.4803 0-.801.6606-1.4405 1.4606-1.4405zm2.0592 9.7803c-.0395.1197-.1198.2602-.2.3394-.5198.5398-1.1603.8606-1.9198.8606-.3602 0-.7 0-1.0602-.0606-.5803-.0802-1.32-.8-1.22-1.5602.0802-.52.1605-1.0398.2397-1.5606.1603-.9.3197-1.8197.4803-2.7197 0-.0605.0197-.1197.0197-.1803 0-.3802-.1197-.5197-.5-.5602-.1605-.02-.3197-.0398-.4803-.0803-.1802-.0605-.2802-.2197-.2602-.3605.0197-.1603.1197-.2603.3197-.3.1-.0198.2197-.0198.3395-.0198h2.7594c.3395 0 .5395.1606.5395.5 0 .2803-.0395.5606-.1.8395-.1803 1.0397-.3803 2.0605-.5603 3.1-.0605.3397-.1397.6803-.1802 1.02-.0198.1603 0 .3395.0394.5.0606.2197.22.3395.4398.3197.1802-.0197.3602-.0802.5394-.1605.1398-.0603.2606-.1603.4-.2.2448-.077.4251.0637.3646.2835z" fill="#FFF" fill-rule="evenodd"/></svg>
