<svg width="20" height="20" xmlns="http://www.w3.org/2000/svg"><path d="M10 0C4.4667 0 0 4.4667 0 10s4.4667 10 10 10 10-4.4667 10-10S15.5333 0 10 0zM8.6 4.7333c0-.7552.6-1.3552 1.3552-1.3552.4 0 .7552.1552 1 .4219.2667.2667.4219.6219.4219 1v5.9552c0 .7781-.6448 1.4219-1.4219 1.4219-.7552 0-1.3552-.6219-1.3552-1.3552V4.7333zm3.0885 10.3782c-.0885.8-.7333 1.4448-1.5114 1.5114-1.0886.1115-2-.8-1.8886-1.8885.0886-.7781.7334-1.4448 1.5115-1.5115 1.1115-.1114 2.0219.799 1.8885 1.8886z" fill="#ffbf4d" fill-rule="evenodd"/></svg>
