<svg width="102" height="20" xmlns="http://www.w3.org/2000/svg"><path d="M99.19 8.4682c-.438-.856-1.3421-1.4452-2.3813-1.4452s-1.9386.5891-2.3767 1.4452h4.758zm-62.3706 0c-.4381-.856-1.3422-1.4452-2.3814-1.4452-1.0392 0-1.9385.5891-2.3766 1.4452h4.758zm47.5841-1.4498c1.468 0 2.661 1.1782 2.661 2.6325 0 1.4497-1.193 2.628-2.661 2.628s-2.6609-1.1783-2.6609-2.628c0-1.4543 1.193-2.6325 2.661-2.6325zm-33.0447 0c1.468 0 2.661 1.1782 2.661 2.6325 0 1.4497-1.193 2.628-2.661 2.628-1.4726 0-2.6655-1.1783-2.6655-2.628 0-1.4543 1.193-2.6325 2.6655-2.6325zm20.3972 0c1.4726 0 2.6656 1.1782 2.6656 2.6325 0 1.4497-1.193 2.628-2.6656 2.628-1.4679 0-2.6609-1.1783-2.6609-2.628 0-1.4543 1.193-2.6325 2.661-2.6325zM6.0115 6.9908c1.4912 0 2.6982 1.192 2.6982 2.6601 0 1.4728-1.207 2.6647-2.6982 2.6647-1.4866 0-2.6935-1.192-2.6935-2.6647 0-1.468 1.207-2.66 2.6935-2.66zm55.469 7.5155h-2.8333V4.86h1.9572l.6478 1.0953c.727-.9388 2.0178-1.3392 3.3087-1.3392.5685 0 1.1324.0874 1.6543.2669L65.106 7.3682c-1.6543-.718-3.332.267-3.6256 1.8133v5.3248zm-20.1502 0h2.8986V0h-2.8986v14.5063zM23.4496 7.7042L25.5093 4.86h3.2854l-3.579 4.9474 3.3786 4.699h-3.29l-1.8547-2.5727-2.0645 2.5726h-3.057l3.374-4.6989L18.123 4.86h3.2853l2.0412 2.8442zm-9.9493 6.8021h2.9218V4.8646h-2.9218v9.6417zm76.4208 0h-2.167l-.48-.7548c-.8668.6444-1.9432 1.0217-3.1083 1.0217-2.866 0-5.1913-2.2965-5.1913-5.1223 0-2.8304 2.3254-5.1269 5.1913-5.1269 1.165 0 2.2415.382 3.1083 1.0263V0h2.647v14.5063zm-12.6475 0h-1.92l-.48-.9388-.0046.0046v-.0092c-.904.7547-2.0738 1.2103-3.3506 1.2103-2.866 0-5.1914-2.2965-5.1914-5.1223 0-2.8304 2.3254-5.1269 5.1914-5.1269 1.2815 0 2.4558.4602 3.3599 1.2242l.4613-.8882h1.934v9.6463zM31.9123 10.484c.3541 1.0448 1.3514 1.795 2.5257 1.795a2.6836 2.6836 0 0 0 1.9992-.8883l1.7848 1.7627c-.946.9986-2.2927 1.62-3.784 1.62-2.8612 0-5.1866-2.2966-5.1866-5.1224 0-2.8304 2.3254-5.1269 5.1866-5.1269 2.866 0 5.1914 2.2965 5.1914 5.127 0 .2853-.0233.5614-.07.833h-7.6471zm62.3706 0c.3542 1.0448 1.3514 1.795 2.5258 1.795a2.6836 2.6836 0 0 0 1.9991-.8883l1.7849 1.7627c-.946.9986-2.2928 1.62-3.784 1.62-2.8613 0-5.1867-2.2966-5.1867-5.1224 0-2.8304 2.3254-5.1269 5.1867-5.1269 2.866 0 5.1913 2.2965 5.1913 5.127 0 .2853-.0233.5614-.0699.833h-7.6472zM56.853 14.5063c-.233 2.6187-2.4606 4.6713-5.168 4.6713-1.524 0-2.894-.649-3.8446-1.6844l1.7894-1.7673a2.6693 2.6693 0 0 0 2.0551.9573c1.468 0 2.661-1.1782 2.661-2.628v-.3957c-.8855.6995-2.0086 1.1137-3.2295 1.1137-2.8613 0-5.1867-2.2965-5.1867-5.1223 0-2.8304 2.3254-5.1269 5.1867-5.1269 1.2815 0 2.4559.4602 3.3646 1.2242l.4567-.8882h1.9386v9.6463h-.0233zM2.6516 19.371H0V4.8599h2.2089l.438 1.1046c.9367-.8928 2.2043-1.4405 3.607-1.4405 2.8659 0 5.1913 2.2965 5.1913 5.127 0 2.8303-2.3254 5.1268-5.1914 5.1268-1.398 0-2.6702-.543-3.6022-1.4359v6.029z" fill="#CCC" fill-rule="evenodd"/></svg>
