<svg width="143" height="37" xmlns="http://www.w3.org/2000/svg"><defs><linearGradient x1="50%" y1="0%" x2="50%" y2="100%" id="a"><stop stop-color="#F9E547" offset="0%"/><stop stop-color="#F9E547" stop-opacity=".7" offset="30%"/><stop stop-color="#F9E547" stop-opacity="0" offset="100%"/></linearGradient></defs><g fill="none" fill-rule="evenodd"><path fill="currentColor" d="M51.6193 21.5263c-.6141-1.1985-1.8816-2.0233-3.3385-2.0233-1.457 0-2.7178.8248-3.332 2.0233h6.6705zm80.5616 2.8222c.4965 1.4627 1.8947 2.513 3.541 2.513a3.7645 3.7645 0 0 0 2.8028-1.2436l2.5023 2.4678c-1.3263 1.3983-3.2144 2.2681-5.305 2.2681-4.0115 0-7.2716-3.2153-7.2716-7.1716 0-3.9627 3.2601-7.178 7.2715-7.178 4.018 0 7.2781 3.2153 7.2781 7.178 0 .3995-.0327.7861-.098 1.1663h-10.721zm6.8795-2.8222c-.614-1.1985-1.8815-2.0233-3.3385-2.0233-1.4569 0-2.7178.8248-3.332 2.0233h6.6705zM126.0658 29.98h-3.038l-.6729-1.0567c-1.2152.902-2.7244 1.4304-4.3577 1.4304-4.018 0-7.278-3.2153-7.278-7.1716 0-3.9627 3.26-7.178 7.278-7.178 1.6333 0 3.1425.5348 4.3577 1.4369V9.6702h3.7109v20.31zm-7.7354-10.4835c-2.058 0-3.7305 1.6495-3.7305 3.6856 0 2.0297 1.6725 3.6793 3.7305 3.6793s3.7305-1.6496 3.7305-3.6793c0-2.0361-1.6725-3.6856-3.7305-3.6856zM108.3345 29.98h-2.6917l-.673-1.3145-.0064.0065v-.013c-1.2675 1.0568-2.9073 1.6947-4.6975 1.6947-4.018 0-7.278-3.2153-7.278-7.1716 0-3.9627 3.26-7.178 7.278-7.178 1.7967 0 3.443.6443 4.7105 1.714l.6468-1.2436h2.7113V29.98zm-7.7354-10.4835c-2.058 0-3.7305 1.6495-3.7305 3.6856 0 2.0297 1.6726 3.6793 3.7305 3.6793 2.0646 0 3.737-1.6496 3.737-3.6793 0-2.0361-1.6724-3.6856-3.737-3.6856zM86.1933 29.98h-3.9722V16.4746h2.744l.908 1.5335c1.0193-1.3145 2.829-1.875 4.6387-1.875.797 0 1.5876.1224 2.3193.3737l-1.555 3.4795c-2.3192-1.0052-4.6712.3737-5.0828 2.5387v7.4551zm-6.4875 0c-.3267 3.6664-3.4496 6.5401-7.2454 6.5401-2.1364 0-4.0572-.9085-5.39-2.3583l2.5088-2.4743c.686.8184 1.7183 1.3403 2.8812 1.3403 2.058 0 3.7305-1.6496 3.7305-3.6793v-.554c-1.2413.9793-2.8159 1.5592-4.5276 1.5592-4.0114 0-7.2715-3.2153-7.2715-7.1716 0-3.9627 3.2601-7.178 7.2715-7.178 1.7967 0 3.443.6443 4.717 1.714l.6403-1.2436h2.7178V29.98h-.0326zM72.003 19.4966c-2.0645 0-3.737 1.6495-3.737 3.6856 0 2.0297 1.6725 3.6793 3.737 3.6793 2.058 0 3.7305-1.6496 3.7305-3.6793 0-2.0361-1.6726-3.6856-3.7305-3.6856zM57.9435 29.98h4.0637V9.6702h-4.0637v20.31zm-13.2037-5.6316c.4965 1.4627 1.8946 2.513 3.541 2.513a3.7645 3.7645 0 0 0 2.8028-1.2436l2.5022 2.4678c-1.3263 1.3983-3.2144 2.2681-5.305 2.2681-4.0114 0-7.2715-3.2153-7.2715-7.1716 0-3.9627 3.26-7.178 7.2715-7.178 4.018 0 7.278 3.2153 7.278 7.178 0 .3995-.0326.7861-.098 1.1663h-10.721zm-11.8644-3.8919l2.8877-3.982h4.606l-5.0176 6.9267 4.7366 6.5788h-4.6125l-2.6002-3.6019-2.8943 3.602h-4.2858l4.73-6.5789-5.0175-6.9267h4.606l2.8616 3.982zm-13.9292 9.619V16.5763h4.0964v13.4991h-4.0964zM3.7174 36.7908H0V16.4746h3.0968l.614 1.5464c1.3133-1.25 3.0903-2.0168 5.0568-2.0168 4.018 0 7.278 3.2153 7.278 7.178 0 3.9628-3.26 7.178-7.278 7.178-1.96 0-3.7435-.7603-5.0502-2.0103v8.441zm4.7105-17.333c-2.0841 0-3.7762 1.6689-3.7762 3.7243 0 2.062 1.6921 3.7308 3.7762 3.7308 2.0906 0 3.7828-1.6689 3.7828-3.7308 0-2.0554-1.6922-3.7243-3.7828-3.7243z" fill-rule="nonzero"/><path fill="currentColor" d="M19 .7909h3.9887v3.9464H19z"/><path fill="url(#a)" fill-rule="nonzero" d="M0 4.7909h3.9887v10H0z" transform="translate(19)"/></g></svg>
