<svg width="1200" height="675" viewBox="0 0 1200 675" fill="none" xmlns="http://www.w3.org/2000/svg" role="img" aria-labelledby="title desc">
	<title id="title">Motion system preview</title>
	<desc id="desc">Abstract motion symbol with a curved path, ghost frames, and staggered timing bars.</desc>
	<defs>
		<filter id="shadow" x="-20%" y="-20%" width="140%" height="140%" color-interpolation-filters="sRGB">
			<feDropShadow dx="0" dy="18" stdDeviation="18" flood-color="#1d2327" flood-opacity="0.14"/>
		</filter>
	</defs>

	<rect width="1200" height="675" fill="#f6f7f7"/>
	<rect x="84" y="74" width="1032" height="527" rx="28" fill="#ffffff" stroke="#dcdcde" stroke-width="2"/>

	<g opacity="0.2" stroke="#c3c4c7" stroke-width="2">
		<path d="M172 150H1028"/>
		<path d="M172 262H1028"/>
		<path d="M172 374H1028"/>
		<path d="M172 486H1028"/>
		<path d="M280 130V520"/>
		<path d="M460 130V520"/>
		<path d="M640 130V520"/>
		<path d="M820 130V520"/>
		<path d="M1000 130V520"/>
	</g>

	<polyline points="208,430 250,352 302,274 360,252 420,315 484,394 548,410 612,340 676,250 746,198 828,197 914,234 996,286" fill="none" stroke="#dfe6ff" stroke-width="92" stroke-linecap="round" stroke-linejoin="round"/>
	<polyline points="208,430 250,352 302,274 360,252 420,315 484,394 548,410 612,340 676,250 746,198 828,197 914,234 996,286" fill="none" stroke="#3858e9" stroke-width="18" stroke-linecap="round" stroke-linejoin="round"/>
	<path d="M994 286L936 264L966 328L994 286Z" fill="#3858e9"/>

	<circle cx="208" cy="430" r="17" fill="#3858e9"/>
	<circle cx="374" cy="278" r="13" fill="#f97316"/>
	<circle cx="538" cy="412" r="13" fill="#00a32a"/>
	<circle cx="704" cy="232" r="13" fill="#f97316"/>
	<circle cx="864" cy="226" r="13" fill="#3858e9"/>

	<g transform="translate(180 356) rotate(-8)" opacity="0.28">
		<rect width="190" height="122" rx="20" fill="#ffffff" stroke="#3858e9" stroke-width="5"/>
		<rect x="32" y="34" width="66" height="12" rx="6" fill="#3858e9"/>
		<rect x="32" y="62" width="120" height="10" rx="5" fill="#8ba0ff"/>
		<rect x="32" y="88" width="88" height="10" rx="5" fill="#8ba0ff"/>
	</g>

	<g transform="translate(492 258) rotate(-8)" filter="url(#shadow)">
		<rect width="240" height="156" rx="24" fill="#ffffff" stroke="#1d2327" stroke-width="5"/>
		<circle cx="62" cy="58" r="26" fill="#edfaef" stroke="#00a32a" stroke-width="5"/>
		<path d="M53 58L61 66L76 48" stroke="#00a32a" stroke-width="7" stroke-linecap="round" stroke-linejoin="round"/>
		<rect x="112" y="42" width="84" height="14" rx="7" fill="#1d2327"/>
		<rect x="112" y="76" width="96" height="12" rx="6" fill="#8c8f94"/>
		<rect x="32" y="114" width="176" height="12" rx="6" fill="#dcdcde"/>
	</g>

	<g transform="translate(830 232) rotate(-8)" opacity="0.42">
		<rect width="202" height="132" rx="22" fill="#edfaef" stroke="#00a32a" stroke-width="5"/>
		<circle cx="52" cy="50" r="20" fill="#00a32a"/>
		<rect x="92" y="42" width="68" height="12" rx="6" fill="#00a32a"/>
		<rect x="32" y="82" width="136" height="10" rx="5" fill="#77d48a"/>
	</g>

	<polyline points="208,430 250,352 302,274 360,252 420,315 484,394 548,410 612,340 676,250 746,198 828,197 914,234 996,286" fill="none" stroke="#3858e9" stroke-width="14" stroke-linecap="round" stroke-linejoin="round" opacity="0.86"/>
	<path d="M994 286L936 264L966 328L994 286Z" fill="#3858e9"/>

	<g transform="translate(254 536)">
		<path d="M0 0H692" stroke="#dcdcde" stroke-width="6" stroke-linecap="round"/>
		<rect x="0" y="-22" width="116" height="14" rx="7" fill="#3858e9"/>
		<rect x="166" y="-22" width="182" height="14" rx="7" fill="#00a32a"/>
		<rect x="412" y="-22" width="142" height="14" rx="7" fill="#f97316"/>
		<circle cx="0" cy="0" r="11" fill="#3858e9"/>
		<circle cx="166" cy="0" r="11" fill="#00a32a"/>
		<circle cx="412" cy="0" r="11" fill="#f97316"/>
		<circle cx="692" cy="0" r="11" fill="#1d2327"/>
	</g>
</svg>
